<svg width="20" height="18" viewBox="0 0 20 18" fill="none" xmlns="http://www.w3.org/2000/svg">
<path d="M20 14.625V3.375C20 1.98828 18.8867 0.875 17.5 0.875H2.5C1.11328 0.875 0 1.98828 0 3.375V14.625C0 16.0117 1.11328 17.125 2.5 17.125H17.5C18.8867 17.125 20 16.0117 20 14.625ZM17.5 3.375V14.625H2.5V3.375H17.5ZM4.29688 7.82812C5.0293 8.56055 6.2207 8.56055 6.95312 7.82812C7.68555 7.0957 7.68555 5.9043 6.95312 5.17188C6.2207 4.43945 5.0293 4.43945 4.29688 5.17188C3.56445 5.9043 3.56445 7.0957 4.29688 7.82812ZM12.1875 8.6875C11.6797 8.07227 10.6348 8.12109 10.1855 8.74609L8.37891 11.373L7.87109 10.6211C7.33398 9.95703 6.41602 9.95703 5.87891 10.6211L3.87695 13.375H16.0645L12.1875 8.6875Z" fill="#A9A9A9"/>
</svg>
