<svg width="21" height="20" viewBox="0 0 21 20" fill="none" xmlns="http://www.w3.org/2000/svg">
<path d="M16.7481 18.1836C16.7481 18.0176 16.7285 17.8906 16.6895 17.8125L15.8106 12.627L19.6875 8.80859C20 8.42773 20.1172 7.93945 20 7.49023C19.8731 6.99219 19.502 6.67969 19.0039 6.61133L13.6231 5.80078L11.1914 0.927734C10.9961 0.498047 10.5664 0.244141 10.0586 0.244141C9.55081 0.244141 9.12112 0.498047 8.93557 0.927734L6.50393 5.80078L1.12307 6.61133C0.97659 6.64062 0.839871 6.68945 0.693387 6.76758C0.419949 6.93359 0.19534 7.19727 0.117215 7.48047C-0.00973828 7.98828 0.117215 8.47656 0.429715 8.78906L4.30667 12.6074L3.36917 17.9785C3.30081 18.4863 3.48636 18.9746 3.86721 19.2188C4.24807 19.5508 4.73636 19.5996 5.18557 19.3555L10 16.7969L14.8731 19.3555C15.1367 19.4336 15.3223 19.4824 15.4395 19.4824C16.1328 19.4824 16.6797 18.9258 16.7481 18.1641V18.1836Z" fill="#A9A9A9"/>
</svg>
