<svg width="21" height="19" viewBox="0 0 21 19" fill="none" xmlns="http://www.w3.org/2000/svg">
<path d="M19.5606 8.0625L11.6895 0.748047C10.752 -0.130859 9.25785 -0.130859 8.32035 0.748047L0.449261 8.12109C-0.0585515 8.58008 -0.097614 9.37109 0.390667 9.87891C0.849652 10.3867 1.64067 10.4355 2.14848 9.9375L10.0196 2.56445L17.8907 9.9375C18.1739 10.1426 18.4668 10.25 18.7696 10.25C19.1504 10.25 19.4629 10.123 19.7071 9.87891C20.1661 9.3125 20.127 8.56055 19.5801 8.0625H19.5606ZM3.76957 10.25V17.125C3.76957 17.8184 4.32621 18.375 5.01957 18.375H8.14457V13.375H11.8946V18.375H15.0196C15.7129 18.375 16.2696 17.8184 16.2696 17.125V10.25L10.0196 4.625L3.76957 10.25Z" fill="#A9A9A9"/>
</svg>
