<svg width="21" height="21" viewBox="0 0 21 21" fill="none" xmlns="http://www.w3.org/2000/svg">
<path d="M12.6562 19.6387C14.3848 19.1504 15.8203 18.3008 17.0605 17.0605C18.3008 15.8203 19.1504 14.3945 19.6387 12.6562C20.127 10.9277 20.127 9.0918 19.6387 7.35352C19.1504 5.625 18.3008 4.18945 17.0605 2.94922C15.8203 1.70898 14.3848 0.859375 12.6562 0.371094C10.918 -0.117188 9.08203 -0.117188 7.35352 0.371094C5.61523 0.859375 4.18945 1.70898 2.94922 2.94922C1.70898 4.18945 0.859375 5.625 0.371094 7.35352C-0.117188 9.0918 -0.117188 10.9277 0.371094 12.6562C0.859375 14.3945 1.70898 15.8203 2.94922 17.0605C4.18945 18.3008 5.61523 19.1504 7.35352 19.6387C9.08203 20.127 10.918 20.127 12.6562 19.6387ZM12.9102 3.0957C14.7656 3.89648 16.1035 5.23438 16.9043 7.08984C17.7051 8.94531 17.7051 11.0449 16.9043 12.9004C16.1035 14.7559 14.7656 16.0938 12.9102 16.8945C11.0547 17.6953 8.95508 17.6953 7.09961 16.8945C5.24414 16.0938 3.90625 14.7559 3.10547 12.9004C2.30469 11.0449 2.30469 8.94531 3.10547 7.08984C3.90625 5.23438 5.24414 3.89648 7.09961 3.0957C8.95508 2.29492 11.0547 2.29492 12.9102 3.0957ZM14.1211 13.252C14.5703 12.6855 14.502 11.9336 13.9355 11.5039L11.3086 9.375V5.625C11.3086 4.93164 10.752 4.375 10.0684 4.375C9.375 4.375 8.80859 4.93164 8.80859 5.625V9.43359C8.80859 10.2344 9.12109 10.8691 9.74609 11.377L12.373 13.4961C12.5391 13.6621 12.793 13.75 13.125 13.75C13.5352 13.75 13.8672 13.5742 14.1309 13.2422L14.1211 13.252Z" fill="#A9A9A9"/>
</svg>
