<svg width="17" height="16" viewBox="0 0 17 16" fill="none" xmlns="http://www.w3.org/2000/svg">
<path d="M11.6745 12.75L8.67445 11.2031L5.67445 12.75L6.27602 9.39844L3.82289 7.04688L7.17445 6.54688L8.67445 3.5L10.1745 6.54688L13.526 7.04688L11.0729 9.39844L11.6745 12.75ZM15.8229 5.35156L11.526 4.75L9.57289 0.851562C9.42445 0.507812 9.0807 0.296875 8.67445 0.296875C8.2682 0.296875 7.92445 0.507812 7.77602 0.851562L5.82289 4.75L1.52602 5.35156C1.11977 5.40625 0.830704 5.64844 0.729142 6.04688C0.635392 6.40625 0.729142 6.79688 0.979142 7.04688L4.0807 10.1016L3.3307 14.3984C3.29164 14.7969 3.41664 15.125 3.72914 15.3984C4.02602 15.6406 4.44008 15.6562 4.78383 15.5L8.63539 13.4531L12.4791 15.5C12.6901 15.5625 12.8385 15.6016 12.9323 15.6016C13.487 15.6016 13.9323 15.1562 13.9323 14.6016C13.9323 14.4688 13.9166 14.3594 13.8854 14.2969L13.1823 10.1484L16.2838 7.10156C16.401 7 16.487 6.89062 16.5573 6.77344C16.6823 6.53125 16.6979 6.29688 16.6354 6.04688C16.5338 5.71094 16.2135 5.45312 15.8385 5.35156H15.8229Z" fill="#1F2533"/>
</svg>
