<svg width="16" height="12" viewBox="0 0 16 12" fill="none" xmlns="http://www.w3.org/2000/svg">
<path d="M15.6658 1.76C15.4809 1.06667 14.9404 0.522667 14.2507 0.337778C13.0027 0 8 0 8 0C8 0 2.99733 0 1.74933 0.337778C1.05956 0.522667 0.519111 1.07022 0.334222 1.76C6.78168e-08 3.01511 0 5.63556 0 5.63556C0 5.63556 6.78168e-08 8.256 0.334222 9.51111C0.519111 10.2044 1.05956 10.7271 1.74933 10.912C2.99733 11.2498 8 11.2498 8 11.2498C8 11.2498 13.0027 11.2498 14.2507 10.912C14.9404 10.7271 15.4809 10.2044 15.6658 9.51111C16 8.256 16 5.63556 16 5.63556C16 5.63556 16 3.01511 15.6658 1.76ZM6.36444 8.01422V3.25689L10.5458 5.63556L6.36444 8.01422Z" fill="#1A1A1A"/>
</svg>
