<svg width="16" height="19" viewBox="0 0 16 19" fill="none" xmlns="http://www.w3.org/2000/svg">
<path d="M15.9916 4.55988C14.9508 4.55988 13.9902 4.21508 13.2191 3.63333C12.3346 2.9664 11.6991 1.98826 11.4747 0.860782C11.4188 0.582151 11.3891 0.294616 11.386 0H8.41256V8.12502L8.40892 12.5754C8.40892 13.7652 7.63414 14.7741 6.56008 15.1288C6.24847 15.2318 5.91176 15.2806 5.5611 15.2614C5.11371 15.2369 4.69445 15.1017 4.33002 14.8838C3.55443 14.42 3.02873 13.5785 3.01437 12.6159C2.99191 11.1114 4.20821 9.88503 5.71144 9.88503C6.00828 9.88503 6.29319 9.93339 6.56008 10.0214V7.80086V7.0026C6.27862 6.96092 5.9923 6.93927 5.70254 6.93927C4.05706 6.93927 2.51821 7.6232 1.41806 8.85549C0.586614 9.78668 0.0878305 10.9747 0.0109389 12.2205C-0.0898296 13.8571 0.508913 15.4127 1.67038 16.5606C1.84096 16.7292 2.02024 16.8856 2.20761 17.0299C3.20336 17.7958 4.42067 18.2112 5.70274 18.2112C5.9923 18.2112 6.27882 18.1897 6.56028 18.148C7.75797 17.9706 8.86299 17.4224 9.7351 16.5602C10.8067 15.5012 11.3988 14.095 11.4051 12.5985L11.3897 5.95263C11.9008 6.347 12.4599 6.67338 13.0596 6.92652C13.9927 7.32008 14.9819 7.5196 15.9999 7.51939V5.36036V4.55927C16.0008 4.55988 15.9923 4.55988 15.9916 4.55988Z" fill="black"/>
</svg>
