<svg width="16" height="17" viewBox="0 0 16 17" fill="none" xmlns="http://www.w3.org/2000/svg">
<path d="M12 9.89844L15.5469 13.4531C15.849 13.724 16 14.0755 16 14.5078C16 14.9349 15.8516 15.2969 15.5547 15.5938C15.2526 15.8958 14.901 16.0469 14.5 16.0469C14.099 16.0469 13.75 15.8984 13.4531 15.6016L9.89844 12.0469C9.3724 12.3646 8.82552 12.6042 8.25781 12.7656C7.69531 12.9219 7.10938 13 6.5 13C5.61458 13 4.77083 12.8307 3.96875 12.4922C3.16667 12.1484 2.47656 11.6849 1.89844 11.1016C1.3151 10.5234 0.851562 9.83333 0.507812 9.03125C0.169271 8.22917 0 7.38542 0 6.5C0 5.61458 0.166667 4.77083 0.5 3.96875C0.838542 3.16667 1.29688 2.47396 1.875 1.89062C2.44792 1.3125 3.13281 0.854167 3.92969 0.515625C4.72656 0.171875 5.56771 0 6.45312 0C7.04167 0 7.61719 0.078125 8.17969 0.234375C8.74219 0.390625 9.26302 0.606771 9.74219 0.882812C10.2161 1.16406 10.651 1.50521 11.0469 1.90625C11.4479 2.30208 11.7891 2.73698 12.0703 3.21094C12.3464 3.6901 12.5625 4.21094 12.7188 4.77344C12.875 5.33594 12.9531 5.91146 12.9531 6.5C12.9531 7.10417 12.8724 7.6901 12.7109 8.25781C12.5547 8.82552 12.3177 9.3724 12 9.89844ZM2.35938 4.74219C2.11979 5.29948 2 5.88542 2 6.5C2 7.11458 2.11979 7.69792 2.35938 8.25C2.59375 8.80729 2.91146 9.28646 3.3125 9.6875C3.71354 10.0885 4.19271 10.4062 4.75 10.6406C5.30208 10.8802 5.88542 11 6.5 11C7.11458 11 7.70052 10.8802 8.25781 10.6406C8.8099 10.4062 9.28646 10.0885 9.6875 9.6875C10.0885 9.28646 10.4089 8.80729 10.6484 8.25C10.8828 7.69792 11 7.11458 11 6.5C11 5.88542 10.8828 5.29948 10.6484 4.74219C10.4089 4.1901 10.0885 3.71354 9.6875 3.3125C9.28646 2.91146 8.8099 2.59115 8.25781 2.35156C7.70052 2.11719 7.11458 2 6.5 2C5.88542 2 5.30208 2.11719 4.75 2.35156C4.19271 2.59115 3.71354 2.91146 3.3125 3.3125C2.91146 3.71354 2.59375 4.1901 2.35938 4.74219Z" fill="#1F2533"/>
</svg>
