<svg width="16" height="16" viewBox="0 0 16 16" fill="none" xmlns="http://www.w3.org/2000/svg">
<path d="M7.99998 10.6667C9.47274 10.6667 10.6666 9.47277 10.6666 8.00001C10.6666 6.52725 9.47274 5.33334 7.99998 5.33334C6.52722 5.33334 5.33331 6.52725 5.33331 8.00001C5.33331 9.47277 6.52722 10.6667 7.99998 10.6667Z" fill="#1A1A1A"/>
<path d="M11.3327 0H4.666C2.09333 0 0 2.094 0 4.66733V11.334C0 13.9067 2.094 16 4.66733 16H11.334C13.9067 16 16 13.906 16 11.3327V4.666C16 2.09333 13.906 0 11.3327 0ZM8 12C5.794 12 4 10.206 4 8C4 5.794 5.794 4 8 4C10.206 4 12 5.794 12 8C12 10.206 10.206 12 8 12ZM12.6667 4C12.2987 4 12 3.70133 12 3.33333C12 2.96533 12.2987 2.66667 12.6667 2.66667C13.0347 2.66667 13.3333 2.96533 13.3333 3.33333C13.3333 3.70133 13.0347 4 12.6667 4Z" fill="#1A1A1A"/>
</svg>
