<svg width="20" height="20" viewBox="0 0 20 20" fill="none" xmlns="http://www.w3.org/2000/svg">
<path d="M19.3555 10.2637C19.3945 9.23831 19.2871 8.54495 18.9355 7.95901C18.5644 7.38284 18.2715 7.04104 17.6465 6.7676C17.0215 6.50393 16.6601 6.39651 15.918 6.31839C15.1562 6.25003 14.8633 6.25003 14.1308 6.25003H11.0058C11.8164 5.44924 12.4902 4.50198 12.9101 3.56448C13.3301 2.63674 13.3691 1.83596 12.8808 1.30862C12.6953 1.11331 12.4609 1.00589 12.1875 0.966823C11.6406 0.898463 10.9473 1.21096 10.3808 1.93362L4.5703 9.56057L8.26171 15.625H13.5058C13.9258 15.625 14.043 15.625 14.541 15.5957C15.0391 15.5664 15.293 15.4981 15.8008 15.3809C16.3086 15.2735 16.6406 15.0879 17.1094 14.8242C17.5683 14.5801 17.9101 14.1992 18.2812 13.7403C18.6523 13.2813 18.9453 12.666 19.1406 11.9336C19.2871 11.3184 19.3652 10.7715 19.375 10.2637H19.3555ZM7.33397 19.2481C7.94921 18.877 8.15429 18.0567 7.77343 17.4903L2.77343 9.36526C2.39257 8.74026 1.57226 8.54495 1.00585 8.92581C0.390616 9.30667 0.185537 10.1172 0.576162 10.6836L5.57616 18.8086C5.81054 19.2285 6.1621 19.4336 6.63085 19.4336C6.83593 19.4336 7.0703 19.3653 7.31444 19.2481H7.33397Z" fill="#A9A9A9"/>
</svg>
