<svg width="21" height="19" viewBox="0 0 21 19" fill="none" xmlns="http://www.w3.org/2000/svg">
<path d="M18.5449 2.40234C17.6562 1.33789 16.3477 0.625 15.0098 0.625C13.7305 0.625 12.4805 1.19141 11.5918 2.07031C10.7031 2.94922 10.0977 4.16992 10.0098 5.43945C9.92188 4.16992 9.31641 2.94922 8.42773 2.07031C7.53906 1.19141 6.28906 0.625 5.00977 0.625C3.67188 0.625 2.36328 1.33789 1.47461 2.40234C0.585938 3.4668 0.00976562 4.89258 0.00976562 6.25V6.44531C0.00976562 6.75781 0.00976562 7.01172 0.0195312 7.23633C0.0292969 7.66602 0.253906 8.84766 0.683594 9.73633C1.11328 10.6348 2.04102 12.1191 3.33984 13.457C4.61914 14.7949 6.70898 16.5723 9.31641 18.3105C9.6875 18.5547 10.2539 18.5547 10.6836 18.3105C11.9922 17.4316 13.1348 16.582 14.1699 15.7324C16.2207 14.0137 17.3926 12.8027 18.3105 11.4258C19.2285 10.0488 19.5801 9.31641 19.8145 8.29102C20.0391 7.28516 20.0195 7.05078 20.0098 6.42578V6.23047C20.0098 4.87305 19.4336 3.44727 18.5449 2.38281V2.40234Z" fill="#A9A9A9"/>
</svg>
