<svg width="14" height="21" viewBox="0 0 14 21" fill="none" xmlns="http://www.w3.org/2000/svg">
<path d="M8.12305 20.375L13.123 11.0586C13.6309 10.0527 13.875 8.99805 13.875 7.875C13.875 5.36523 12.5762 3.14844 10.457 1.91797C8.33789 0.6875 5.66211 0.6875 3.54297 1.91797C1.42383 3.14844 0.125 5.36523 0.125 7.875C0.125 9.02734 0.378906 10.0625 0.876953 11L5.87695 20.3164C6.12109 20.7461 6.55078 21 7 21C7.42969 21 7.86914 20.7559 8.11328 20.375H8.12305ZM6.99023 3.5C9.44141 3.5 11.3652 5.42383 11.3652 7.875C11.3652 8.53906 11.209 9.19336 10.8672 9.87695L6.99023 17.123L3.11328 9.87695C2.78125 9.19336 2.60547 8.53906 2.60547 7.875C2.60547 5.42383 4.5293 3.5 6.98047 3.5H6.99023ZM5.65234 9.20312C6.38477 9.93555 7.57617 9.93555 8.30859 9.20312C9.04102 8.4707 9.04102 7.2793 8.30859 6.54688C7.57617 5.81445 6.38477 5.81445 5.65234 6.54688C4.91992 7.2793 4.91992 8.4707 5.65234 9.20312Z" fill="#A9A9A9"/>
</svg>
