<svg width="19" height="18" viewBox="0 0 19 18" fill="none" xmlns="http://www.w3.org/2000/svg">
<path d="M18.3265 2.25C18.3265 1.41797 17.6586 0.75 16.8265 0.75H1.82654C0.994507 0.75 0.326538 1.41797 0.326538 2.25C0.326538 3.08203 0.994507 3.75 1.82654 3.75H16.8265C17.6586 3.75 18.3265 3.08203 18.3265 2.25ZM18.3265 9C18.3265 8.16797 17.6586 7.5 16.8265 7.5H1.82654C0.994507 7.5 0.326538 8.16797 0.326538 9C0.326538 9.83203 0.994507 10.5 1.82654 10.5H16.8265C17.6586 10.5 18.3265 9.83203 18.3265 9ZM18.3265 15.75C18.3265 14.918 17.6586 14.25 16.8265 14.25H1.82654C0.994507 14.25 0.326538 14.918 0.326538 15.75C0.326538 16.582 0.994507 17.25 1.82654 17.25H16.8265C17.6586 17.25 18.3265 16.582 18.3265 15.75Z" fill="#1F2533"/>
</svg>
