<svg width="19" height="18" viewBox="0 0 19 18" fill="none" xmlns="http://www.w3.org/2000/svg">
<path d="M18.0039 0.933594C17.7598 0.806641 17.4375 0.884766 17.2519 1.12891L15.4355 3.12109C13.8633 1.30469 11.5098 0.25 9 0.25C7.32031 0.25 5.71875 0.738281 4.40039 1.55859C3.0625 2.37891 1.95898 3.58008 1.22656 4.95703C0.494138 6.34375 0.13281 7.99414 0.249997 9.68359C0.357419 10.9531 0.708982 12.1152 1.33398 13.2285C2.56445 15.4355 4.67383 17.0273 7.18359 17.5645C8.14062 17.75 9.06836 17.7891 9.98633 17.6816C11.832 17.4766 13.5605 16.6953 14.9375 15.4355C15.4355 15.0059 15.4551 14.1855 14.9961 13.6875C14.5469 13.1797 13.7559 13.1309 13.248 13.6289C12.0566 14.6934 10.582 15.25 9 15.25C7.77929 15.25 6.60742 14.8984 5.65039 14.2832C4.69336 13.6777 3.89258 12.7793 3.39453 11.7441C2.88672 10.7188 2.66211 9.48828 2.80859 8.22852C2.91601 7.31055 3.19922 6.48047 3.69726 5.69922C4.66406 4.14648 6.24609 3.0918 8.0625 2.78906C10.2891 2.41797 12.3984 3.24805 13.8145 4.9082L11.6855 7.28125C11.4805 7.48633 11.4414 7.71094 11.5586 7.97461C11.627 8.20898 11.8711 8.3457 12.1348 8.3457H17.1348C17.8281 8.3457 18.3848 7.78906 18.3848 7.0957V1.4707C18.3848 1.20703 18.248 0.962891 18.0137 0.894531L18.0039 0.933594Z" fill="#A9A9A9"/>
</svg>
